<svg id="Layer_1" data-name="Layer 1" xmlns="http://www.w3.org/2000/svg" width="2000" height="2000" viewBox="0 0 2000 2000"><defs><style>.cls-1{fill:#8c6239;}.cls-2,.cls-4{fill:none;stroke:#000;stroke-miterlimit:10;}.cls-2{stroke-width:8.12px;}.cls-3{fill:#fff;}.cls-4{stroke-width:8.12px;}</style></defs><title>logo_kgb</title><path class="cls-1" d="M1306.74,1293a12.64,12.64,0,0,1-10.91-6.25L1000,777.6,704.17,1286.73a12.59,12.59,0,0,1-17.18,4.56,12.63,12.63,0,0,1-4.56-17.19l303-521.53-365-628.12a12.57,12.57,0,0,1,21.74-12.63L1000,727.55l357.77-615.73a12.59,12.59,0,0,1,17.18-4.56,12.63,12.63,0,0,1,4.56,17.19l-365,628.12,303,521.53a12.56,12.56,0,0,1-10.83,18.88Z"/><path d="M1368.68,108.31a9.85,9.85,0,0,1,8.46,14.77L1013,749.82l-1.6,2.75,1.6,2.76,302.23,520.14a9.83,9.83,0,0,1-17,9.88l-293.46-505-4.74-8.15-4.74,8.15L701.8,1285.35a9.86,9.86,0,0,1-13.44,3.57,9.9,9.9,0,0,1-3.56-13.45L987,755.33l1.6-2.76-1.6-2.75L622.86,123.08a9.82,9.82,0,0,1,8.46-14.77,9.88,9.88,0,0,1,8.54,4.88l355.4,611.66L1000,733l4.74-8.15,355.4-611.65a9.87,9.87,0,0,1,8.54-4.89m0-5.48a15.33,15.33,0,0,0-13.28,7.61L1000,722.09,644.6,110.44a15.31,15.31,0,1,0-26.48,15.39L982.29,752.57,680.06,1272.72a15.31,15.31,0,0,0,26.48,15.39l293.46-505,293.46,505.05a15.31,15.31,0,1,0,26.48-15.39L1017.71,752.57l364.17-626.74a15.3,15.3,0,0,0-13.2-23Z"/><path class="cls-2" d="M947.58,698S840,801.52,630.87,777.15c0,0-148.2-24.36-263.92,166.48,0,0-111.66,160.38-276.1,188.81,0,0,20.3-235.5-56.85-444.61,0,0,148.2-48.73,203-255.81,0,0,28.42-121.81,211.14-188.8,0,0,93.39-26.4,182.71-89.33Z"/><path d="M793.49,770.35,722.23,606.62S795,594.5,859,545.74L947.58,698S885.05,759.49,793.49,770.35Z"/><path d="M529,643.5s60.18-3.53,98-18c.66-.25,5.3-1.92,6-2,7.82-.86,57.45-9.4,89.23-16.88l-69-138S544,479.5,474,508.5Z"/><path d="M586.21,336.61l67,132s89.49-13.4,128-56.44L700.48,273.46S648,308.5,586.21,336.61Z"/><path d="M364.65,283.16,416,389.5s164.12-42.74,170.21-52.89L517,217.44S392.81,264.22,364.65,283.16Z"/><path d="M387,744.5l36,125s78-75.54,155.13-90L529,643.5S432.75,679.33,387,744.5Z"/><path d="M349,618.5s44.34-70.76,125.55-109.33L416,389.5s-67,21.6-110,101Z"/><polygon points="285 858.5 387.25 744.67 349 618.5 259 738.5 285 858.5"/><path d="M167,831.94l91.36-91.36L227,618.5s-64.07,93.66-84.37,97.72Z"/><path d="M81.75,895.93S138,852.5,167,831.94l22.33,117.75s-82.57,56.83-98.13,58.87C91.19,1008.56,91.93,911.2,81.75,895.93Z"/><path d="M60.32,778.82s70.5-40,82.68-62.32l-20.22-85.85S91.88,670.56,33,688.83C33,688.83,47.21,717.25,60.32,778.82Z"/><path d="M261.11,378,304,490.9,226.9,618.8,201,525.5s19.81-28.51,22.86-56.93C223.86,468.57,244.57,413.36,261.11,378Z"/><path class="cls-3" d="M653,468.5l69,138s60.93-2.52,137-60.76L781.19,412.13S734,454.5,653,468.5Z"/><path class="cls-3" d="M416,389.5l58,119s41-21,179-40l-67-132S498,366.5,416,389.5Z"/><path class="cls-3" d="M517,217.5l69,119s84-32.07,114.48-63L630.87,153.89S586,191.5,517,217.5Z"/><path d="M188.32,949.69l20.87,138.7s81.25-57.43,105.31-83.86l-30.76-146.2S224.87,925.33,188.32,949.69Z"/><path class="cls-3" d="M387,744.5s47-64,142-101l-55-135s-67,24-125,110Z"/><path class="cls-3" d="M306,490.5s34-68,110-101l-51-106s-44,28-102,95Z"/><path class="cls-3" d="M316,1000.5l-31-142,102-114,36,124S357,949.5,316,1000.5Z"/><path class="cls-3" d="M91,1008.5s41-18,98-59l21,139s-52,32-119,46Z"/><path class="cls-3" d="M82,895.5s-4-60-22-116c0,0,53-34,83-63l24,115Z"/><path class="cls-3" d="M189,949.5s50-38,96-91l-26-120-92,93S178,888.5,189,949.5Z"/><path class="cls-3" d="M143,716.5l-19-86s45-26,77-105l26,93S176,699.5,143,716.5Z"/><polygon class="cls-3" points="306 490.5 349 618.5 259 738.5 227 618.5 306 490.5"/><path class="cls-3" d="M529,643.5l49,136s23-9,96.43,0c0,0,71.57,3,119.57-9l-72-164S619,624.5,529,643.5Z"/><path class="cls-4" d="M1053.63,698s107.7,103.54,317,79.17c0,0,148.34-24.36,264.17,166.48,0,0,111.76,160.38,276.36,188.81,0,0-20.33-235.5,56.89-444.61,0,0-148.34-48.73-203.2-255.81,0,0-28.45-121.81-211.33-188.8,0,0-93.48-26.4-182.89-89.33Z"/><path d="M1207.87,770.35l71.32-163.73s-72.83-12.12-136.86-60.88L1053.63,698S1116.22,759.49,1207.87,770.35Z"/><path d="M1472.6,643.5s-60.23-3.53-98.09-18c-.66-.25-5.31-1.92-6-2-7.83-.86-57.5-9.4-89.31-16.88l69.09-138s109.31,10.93,179.37,39.93Z"/><path d="M1415.34,336.61l-67.06,132s-89.58-13.4-128.1-56.44L1301,273.46S1353.49,308.5,1415.34,336.61Z"/><path d="M1637.1,283.16,1585.7,389.5s-164.27-42.74-170.36-52.89l69.27-119.17S1608.92,264.22,1637.1,283.16Z"/><path d="M1614.73,744.5l-36,125s-78.1-75.54-155.28-90l49.18-136S1568.94,679.33,1614.73,744.5Z"/><path d="M1652.76,618.5s-44.38-70.76-125.66-109.33l58.6-119.67s67.11,21.6,110.1,101Z"/><polygon points="1716.82 858.5 1614.48 744.67 1652.76 618.5 1742.85 738.5 1716.82 858.5"/><path d="M1834.94,831.94l-91.44-91.36,31.38-122.08s64.12,93.66,84.44,97.72Z"/><path d="M1920.26,895.93s-56.3-43.43-85.32-64l-22.35,117.75s82.64,56.83,98.22,58.87C1910.81,1008.56,1910.07,911.2,1920.26,895.93Z"/><path d="M1941.71,778.82s-70.57-40-82.76-62.32l20.24-85.85s30.93,39.91,89.86,58.18C1969.05,688.83,1954.83,717.25,1941.71,778.82Z"/><path d="M1740.73,378l-43,112.87L1775,618.8l25.92-93.3S1781.07,497,1778,468.57C1778,468.57,1757.29,413.36,1740.73,378Z"/><path class="cls-3" d="M1348.49,468.5l-69.07,138s-61-2.52-137.09-60.76l77.85-133.61S1267.41,454.5,1348.49,468.5Z"/><path class="cls-3" d="M1585.7,389.5l-58,119s-41-21-179.16-40l67.06-132S1503.63,366.5,1585.7,389.5Z"/><path class="cls-3" d="M1484.61,217.5l-69.06,119s-84-32.07-114.58-63l69.66-119.57S1415.55,191.5,1484.61,217.5Z"/><path d="M1813.59,949.69l-20.89,138.7s-81.32-57.43-105.4-83.86l30.78-146.2S1777,925.33,1813.59,949.69Z"/><path class="cls-3" d="M1614.73,744.5s-47-64-142.13-101l55.05-135s67.06,24,125.11,110Z"/><path class="cls-3" d="M1695.8,490.5s-34-68-110.1-101l51-106s44,28,102.09,95Z"/><path class="cls-3" d="M1685.79,1000.5l31-142-102.09-114-36,124S1644.76,949.5,1685.79,1000.5Z"/><path class="cls-3" d="M1911,1008.5s-41-18-98.09-59l-21,139s52,32,119.11,46Z"/><path class="cls-3" d="M1920,895.5s4-60,22-116c0,0-53-34-83.08-63l-24,115Z"/><path class="cls-3" d="M1812.91,949.5s-50.05-38-96.09-91l26-120,92.08,93S1823.92,888.5,1812.91,949.5Z"/><path class="cls-3" d="M1859,716.5l19-86s-45-26-77.07-105l-26,93S1825.92,699.5,1859,716.5Z"/><polygon class="cls-3" points="1695.8 490.5 1652.76 618.5 1742.85 738.5 1774.88 618.5 1695.8 490.5"/><path class="cls-3" d="M1472.6,643.5l-49,136s-23-9-96.51,0c0,0-71.64,3-119.68-9l72.06-164S1382.52,624.5,1472.6,643.5Z"/><path d="M305.27,1501.59l-12.2,13.58V1555h-53.4V1393.85h53.4v58.47L346,1393.85h59.16l-64.46,70.9L408.4,1555H345.56Z"/><path d="M438.44,1548.89a64.65,64.65,0,0,1-26.12-23.25,65,65,0,0,1,0-67.45,63.88,63.88,0,0,1,26.12-23.13q16.69-8.3,37.64-8.29,21.18,0,37.87,8.29a63.07,63.07,0,0,1,26,23.13q9.33,14.85,9.32,33.73T540,1525.64a63.82,63.82,0,0,1-26,23.25q-16.7,8.41-37.87,8.4Q455.13,1557.29,438.44,1548.89Zm76.77-134.32h21.87L435.57,1571.1H413.7Zm-24.4,95.65q5.76-6.57,5.76-18.3t-5.76-18.19a20.07,20.07,0,0,0-29.46,0q-5.76,6.45-5.76,18.19t5.76,18.3a19.82,19.82,0,0,0,29.46,0Z"/><path d="M680.15,1434.71a57.55,57.55,0,0,1,22.1,22.79q8.16,14.85,8.17,34.42t-8.17,34.53a57.32,57.32,0,0,1-22.1,22.9,60.46,60.46,0,0,1-30.5,7.94q-23.25,0-34.53-12.66V1555H565.63v-170.8h52v53.4q11.05-10.81,32-10.82A60.56,60.56,0,0,1,680.15,1434.71ZM652,1510.22q5.74-6.57,5.75-18.3T652,1473.73a20.08,20.08,0,0,0-29.47,0q-5.75,6.45-5.75,18.19t5.75,18.3a19.83,19.83,0,0,0,29.47,0Z"/><path d="M860.05,1504.12H772.57a21.14,21.14,0,0,0,9.21,10.93q6.44,3.79,16.11,3.8a40.71,40.71,0,0,0,13.93-2.07,48.91,48.91,0,0,0,12.32-7.14L851.3,1537q-18.42,20.25-55,20.25-22.78,0-40-8.4t-26.71-23.36a61.71,61.71,0,0,1-9.43-33.61q0-18.87,9.32-33.73A63.76,63.76,0,0,1,755,1435.06q16.23-8.3,36.49-8.29a79.22,79.22,0,0,1,34.87,7.6,59.83,59.83,0,0,1,25.09,22.33q9.33,14.73,9.33,35.22Q860.74,1493.08,860.05,1504.12Zm-81.49-37.52q-5.31,4.37-6.91,12.43h40.52a21.18,21.18,0,0,0-6.91-12.32,19.94,19.94,0,0,0-13.35-4.49C786.53,1462.22,782.09,1463.68,778.56,1466.6Z"/><path d="M1002,1440.81q14.16,14.06,14.16,42.36V1555h-52v-62.84q0-21.64-15.42-21.64a18,18,0,0,0-14.16,6.1q-5.4,6.11-5.41,19.22V1555h-52V1429.07h49.49v12.43a47.9,47.9,0,0,1,17-11,58.2,58.2,0,0,1,20.94-3.69Q987.8,1426.77,1002,1440.81Z"/><path d="M1163.56,1440.81q14.16,14.06,14.15,42.36V1555h-52v-62.84q0-21.64-15.42-21.64a18,18,0,0,0-14.16,6.1q-5.41,6.11-5.41,19.22V1555h-52v-170.8h52v55q14.5-12.42,35.45-12.43Q1149.4,1426.77,1163.56,1440.81Z"/><path d="M1307.31,1441.62q17.51,14.85,17.5,45.69V1555h-48.34v-16.57q-9,18.87-35.68,18.87-15,0-25.44-5.18a36.48,36.48,0,0,1-21.29-33.95q0-18.65,14.27-28.31t43.28-9.67h20.94q-2.54-14.73-23.71-14.73a59.54,59.54,0,0,0-17.26,2.64,48.81,48.81,0,0,0-15,7.25L1200,1441a91.41,91.41,0,0,1,26.13-10.47,126.38,126.38,0,0,1,30.5-3.8Q1289.82,1426.77,1307.31,1441.62Zm-41,81.37a17.35,17.35,0,0,0,6.45-9v-8.75h-12.9q-15.89,0-15.88,10.59a9.15,9.15,0,0,0,3.34,7.25q3.33,2.88,9.09,2.88A17.11,17.11,0,0,0,1266.34,1523Z"/><path d="M1485.25,1429.07,1434.61,1555h-53.86l-50.65-125.92h53.41l25.32,67.45,27.16-67.45Z"/><path d="M1618.19,1440.81q14.16,14.06,14.16,42.36V1555h-52v-62.84q0-21.64-15.42-21.64a18,18,0,0,0-14.16,6.1q-5.4,6.11-5.41,19.22V1555h-52V1429.07h49.49v12.43a47.9,47.9,0,0,1,17-11,58.21,58.21,0,0,1,21-3.69Q1604,1426.77,1618.19,1440.81Z"/><path d="M1672.4,1553.84q-15.66-3.45-25.32-9l14.27-34.3a74.44,74.44,0,0,0,20.72,8.29,95.46,95.46,0,0,0,23.25,3c6,0,10.16-.49,12.55-1.49s3.56-2.5,3.56-4.49-1.49-3.38-4.48-4.15a123.06,123.06,0,0,0-14.62-2.3,191.38,191.38,0,0,1-26.25-4.72,41.14,41.14,0,0,1-19-11.16q-8.17-8.29-8.17-23.71a35.18,35.18,0,0,1,7.37-21.87q7.37-9.67,22-15.42t35.11-5.76a147.56,147.56,0,0,1,28,2.65,85.72,85.72,0,0,1,23.36,7.71l-14.27,34.3a73.64,73.64,0,0,0-36.37-9.21q-17,0-17,6,0,3,4.61,4.26a106.2,106.2,0,0,0,14.5,2.41,176.15,176.15,0,0,1,26.13,4.84,42,42,0,0,1,18.87,11.28q8.17,8.28,8.17,23.71a34.53,34.53,0,0,1-7.36,21.41q-7.37,9.66-22.1,15.42t-35.68,5.75A147.23,147.23,0,0,1,1672.4,1553.84Z"/><path d="M227,1725.56h55v79.49a127.87,127.87,0,0,1-38.67,17.73A160,160,0,0,1,200.1,1829q-30.09,0-54-12.49a93.29,93.29,0,0,1-37.47-34.91q-13.56-22.42-13.56-50.89t13.56-50.89a92.74,92.74,0,0,1,37.87-34.92q24.3-12.48,54.92-12.48,27.66,0,49.55,9.26a93.1,93.1,0,0,1,36.39,27l-40.55,35.72q-17.73-20.68-42.17-20.68-20.94,0-33.3,12.62T159,1730.66q0,21.21,12.22,34.11t32.63,12.89a59.64,59.64,0,0,0,23.1-4.57Z"/><path d="M341,1817.54a75.47,75.47,0,0,1-30.48-27.13q-11-17.31-11-39.34t11-39.35a74.58,74.58,0,0,1,30.48-27q19.47-9.66,43.91-9.66,24.7,0,44.18,9.66a73.62,73.62,0,0,1,30.34,27q10.89,17.33,10.88,39.35t-10.88,39.34a74.49,74.49,0,0,1-30.34,27.13q-19.49,9.81-44.18,9.8Q360.42,1827.34,341,1817.54Zm61.1-45.12q6.7-7.65,6.71-21.35t-6.71-21.22a23.41,23.41,0,0,0-34.38,0q-6.72,7.53-6.71,21.22t6.71,21.35a23.14,23.14,0,0,0,34.38,0Z"/><path d="M559.7,1779.54,550,1790v34.65H489.34V1625.38H550v95.07l42.17-42.7h71.7l-60.69,63.65,65.53,83.26H595.42Z"/><path d="M803,1692.39q20.4,17.33,20.41,53.31v79H767v-19.34q-10.47,22-41.63,22-17.46,0-29.67-6t-18.53-16.38a43.68,43.68,0,0,1-6.31-23.23q0-21.76,16.65-33T738,1737.37h24.44q-3-17.17-27.67-17.19a69.58,69.58,0,0,0-20.14,3.09,56.49,56.49,0,0,0-17.45,8.46l-19.34-40q12.61-7.79,30.48-12.22a147,147,0,0,1,35.58-4.43Q782.62,1675.07,803,1692.39Zm-47.81,94.94a20.2,20.2,0,0,0,7.52-10.48v-10.2h-15q-18.53,0-18.53,12.35a10.69,10.69,0,0,0,3.9,8.46q3.88,3.36,10.61,3.36A20,20,0,0,0,755.21,1787.33Z"/><path d="M955,1675.07v53.71a92.93,92.93,0,0,0-13.43-1.08q-31.15,0-31.15,31.69v65.27H849.75V1677.75h57.74v15.85Q923.6,1675.06,955,1675.07Z"/><path d="M1084.47,1819.55q-13.7,7.79-37.33,7.79-30.89,0-47.54-14.9T983,1767.72v-37.6H962.81v-44.31H983v-41.09h60.7v41.09h30.07v44.31h-30.07v37.06q0,6.72,3.49,10.48a11.86,11.86,0,0,0,9.13,3.76,23.75,23.75,0,0,0,13.69-4Z"/><path d="M1358.39,1744.36q9.13,11.82,9.14,28.46,0,24.72-20.41,38.27T1288,1824.66H1182.22v-188h100.44q37.59,0,56.8,13.43t19.2,35.72a43.46,43.46,0,0,1-6.58,23.63q-6.58,10.47-19.47,16.92Q1349.26,1732.54,1358.39,1744.36ZM1244.52,1681v27.94h29.55q20.67,0,20.68-14t-20.68-14Zm59.09,84.6q0-14.76-20.95-14.77h-38.14v29.54h38.14Q1303.6,1780.34,1303.61,1765.57Z"/><path d="M1512.82,1692.39q20.4,17.33,20.41,53.31v79h-56.4v-19.34q-10.47,22-41.63,22-17.46,0-29.67-6T1387,1804.92a43.68,43.68,0,0,1-6.32-23.23q0-21.76,16.65-33t50.49-11.28h24.44q-3-17.17-27.66-17.19a69.58,69.58,0,0,0-20.14,3.09,56.66,56.66,0,0,0-17.46,8.46l-19.33-40q12.61-7.79,30.48-12.22a147,147,0,0,1,35.58-4.43Q1492.4,1675.07,1512.82,1692.39ZM1465,1787.33a20.2,20.2,0,0,0,7.52-10.48v-10.2h-15q-18.52,0-18.53,12.35a10.69,10.69,0,0,0,3.9,8.46q3.89,3.36,10.6,3.36A20,20,0,0,0,1465,1787.33Z"/><path d="M1705.24,1691.45q16.52,16.38,16.51,49.41v83.8h-60.69v-73.32q0-25.24-18-25.25-10.21,0-16.52,7.12t-6.31,22.42v69h-60.7V1677.75h57.74v14.5a56.24,56.24,0,0,1,19.88-12.89,68.16,68.16,0,0,1,24.44-4.29Q1688.72,1675.07,1705.24,1691.45Z"/><path d="M1906.25,1765.3h-102a24.73,24.73,0,0,0,10.74,12.76q7.51,4.43,18.8,4.43a47.25,47.25,0,0,0,16.25-2.42,57,57,0,0,0,14.37-8.32l31.69,32q-21.49,23.63-64.19,23.63-26.58,0-46.73-9.8T1754,1790.28a72,72,0,0,1-11-39.21q0-22,10.87-39.35a74.47,74.47,0,0,1,29.82-27q18.93-9.66,42.56-9.66a92.52,92.52,0,0,1,40.69,8.86,69.85,69.85,0,0,1,29.27,26q10.88,17.19,10.88,41.09Q1907.06,1752.42,1906.25,1765.3Zm-95.07-43.77q-6.18,5.1-8,14.5h47.26q-1.87-9.12-8.05-14.37t-15.58-5.24Q1817.36,1716.42,1811.18,1721.53Z"/></svg>
