<svg id="Layer_1" data-name="Layer 1" xmlns="http://www.w3.org/2000/svg" width="5700" height="1200" viewBox="0 0 5700 1200"><defs><style>.cls-1{fill:#8c6239;}.cls-2,.cls-4{fill:none;stroke:#000;stroke-miterlimit:10;}.cls-2{stroke-width:8.12px;}.cls-3{fill:#fff;}.cls-4{stroke-width:8.12px;}</style></defs><title>sort_bred</title><path class="cls-1" d="M1346.24,1193.7a12.63,12.63,0,0,1-10.91-6.24L1039.5,678.33,743.67,1187.46a12.63,12.63,0,0,1-10.91,6.24,12.44,12.44,0,0,1-6.27-1.69,12.59,12.59,0,0,1-4.56-17.19L1025,653.3,660,25.18A12.59,12.59,0,0,1,664.55,8a12.44,12.44,0,0,1,6.27-1.69,12.63,12.63,0,0,1,10.91,6.24L1039.5,628.27,1397.27,12.54a12.63,12.63,0,0,1,10.91-6.24A12.44,12.44,0,0,1,1414.45,8,12.59,12.59,0,0,1,1419,25.18L1054,653.3l303,521.52a12.59,12.59,0,0,1-4.56,17.19,12.44,12.44,0,0,1-6.27,1.69Z"/><path d="M1408.18,9a9.85,9.85,0,0,1,8.46,14.76L1052.47,650.55l-1.6,2.75,1.6,2.75L1354.7,1176.2a9.81,9.81,0,0,1-8.46,14.76,9.89,9.89,0,0,1-8.54-4.88L1044.24,681l-4.74-8.16-4.74,8.16L741.3,1186.08a9.83,9.83,0,0,1-17-9.88l302.23-520.15,1.6-2.75-1.6-2.75L662.36,23.8A9.81,9.81,0,0,1,670.82,9a9.88,9.88,0,0,1,8.54,4.88l355.4,611.65,4.74,8.16,4.74-8.16,355.4-611.65A9.88,9.88,0,0,1,1408.18,9m0-5.48a15.33,15.33,0,0,0-13.28,7.61L1039.5,622.82,684.1,11.17a15.33,15.33,0,0,0-13.28-7.61,15.14,15.14,0,0,0-7.65,2.06,15.36,15.36,0,0,0-5.55,20.93L1021.79,653.3,719.56,1173.45a15.36,15.36,0,0,0,5.55,20.93,15.14,15.14,0,0,0,7.65,2.06,15.33,15.33,0,0,0,13.28-7.61l293.46-505L1333,1188.83a15.33,15.33,0,0,0,13.28,7.61,15.14,15.14,0,0,0,7.65-2.06,15.36,15.36,0,0,0,5.55-20.93L1057.21,653.3,1421.38,26.55a15.36,15.36,0,0,0-5.55-20.93,15.14,15.14,0,0,0-7.65-2.06Z"/><path class="cls-2" d="M987.08,598.7s-107.6,103.54-316.71,79.18c0,0-148.2-24.36-263.92,166.48,0,0-111.66,160.38-276.1,188.8,0,0,20.3-235.5-56.85-444.61,0,0,148.2-48.72,203-255.8,0,0,28.42-121.81,211.14-188.81,0,0,93.39-26.39,182.71-89.33Z"/><path d="M833,671.08,761.73,507.34s72.77-12.11,136.74-60.87L987.08,598.7S924.55,660.21,833,671.08Z"/><path d="M568.5,544.23s60.18-3.54,98-18c.66-.26,5.3-1.93,6-2,7.82-.87,57.45-9.41,89.23-16.89l-69-138S583.5,380.23,513.5,409.23Z"/><path d="M625.71,237.33l67,132s89.49-13.4,128-56.44L740,174.19S687.5,209.23,625.71,237.33Z"/><path d="M404.15,183.88,455.5,290.23s164.12-42.75,170.21-52.9L556.5,118.16S432.31,165,404.15,183.88Z"/><path d="M426.5,645.23l36,125s78-75.54,155.13-90l-49.13-136S472.25,580.05,426.5,645.23Z"/><path d="M388.5,519.23s44.34-70.76,125.55-109.33L455.5,290.23s-67,21.6-110,101Z"/><polygon points="324.5 759.23 426.75 645.4 388.5 519.23 298.5 639.23 324.5 759.23"/><path d="M206.49,732.67l91.36-91.36L266.5,519.23s-64.07,93.65-84.37,97.71Z"/><path d="M121.25,796.66s56.25-43.43,85.24-64l22.33,117.75s-82.57,56.83-98.13,58.86C130.69,909.28,131.43,811.93,121.25,796.66Z"/><path d="M99.82,679.54s70.5-40,82.68-62.31l-20.22-85.86s-30.9,39.91-89.78,58.18C72.5,589.55,86.71,618,99.82,679.54Z"/><path d="M300.61,278.75l42.93,112.87L266.4,519.53l-25.9-93.3s19.81-28.51,22.86-56.94C263.36,369.29,284.07,314.09,300.61,278.75Z"/><path class="cls-3" d="M692.5,369.23l69,138s60.93-2.52,137-60.76L820.69,312.85S773.5,355.23,692.5,369.23Z"/><path class="cls-3" d="M455.5,290.23l58,119s41-21,179-40l-67-132S537.5,267.23,455.5,290.23Z"/><path class="cls-3" d="M556.5,118.23l69,119s84-32.08,114.48-63L670.37,54.61S625.5,92.23,556.5,118.23Z"/><path d="M227.82,850.42l20.87,138.69S329.94,931.68,354,905.26l-30.76-146.2S264.37,826.05,227.82,850.42Z"/><path class="cls-3" d="M426.5,645.23s47-64,142-101l-55-135s-67,24-125,110Z"/><path class="cls-3" d="M345.5,391.23s34-68,110-101l-51-106s-44,28-102,95Z"/><path class="cls-3" d="M355.5,901.23l-31-142,102-114,36,124S396.5,850.23,355.5,901.23Z"/><path class="cls-3" d="M130.5,909.23s41-18,98-59l21,139s-52,32-119,46Z"/><path class="cls-3" d="M121.5,796.23s-4-60-22-116c0,0,53-34,83-63l24,115Z"/><path class="cls-3" d="M228.5,850.23s50-38,96-91l-26-120-92,93S217.5,789.23,228.5,850.23Z"/><path class="cls-3" d="M182.5,617.23l-19-86s45-26,77-105l26,93S215.5,600.23,182.5,617.23Z"/><polygon class="cls-3" points="345.5 391.23 388.5 519.23 298.5 639.23 266.5 519.23 345.5 391.23"/><path class="cls-3" d="M568.5,544.23l49,136s23-9,96.43,0c0,0,71.57,3,119.57-9l-72-164S658.5,525.23,568.5,544.23Z"/><path class="cls-4" d="M1093.13,598.7s107.7,103.54,317,79.18c0,0,148.34-24.36,264.17,166.48,0,0,111.76,160.38,276.36,188.8,0,0-20.33-235.5,56.89-444.61,0,0-148.34-48.72-203.2-255.8,0,0-28.45-121.81-211.33-188.81,0,0-93.48-26.39-182.89-89.33Z"/><path d="M1247.37,671.08l71.32-163.74s-72.83-12.11-136.86-60.87l-88.7,152.23S1155.72,660.21,1247.37,671.08Z"/><path d="M1512.1,544.23s-60.23-3.54-98.09-18c-.66-.26-5.31-1.93-6-2-7.83-.87-57.5-9.41-89.31-16.89l69.09-138s109.31,10.94,179.37,39.94Z"/><path d="M1454.84,237.33l-67.06,132s-89.58-13.4-128.1-56.44l80.79-138.66S1393,209.23,1454.84,237.33Z"/><path d="M1676.6,183.88l-51.4,106.35s-164.27-42.75-170.36-52.9l69.27-119.17S1648.42,165,1676.6,183.88Z"/><path d="M1654.23,645.23l-36,125s-78.1-75.54-155.28-90l49.18-136S1608.44,580.05,1654.23,645.23Z"/><path d="M1692.26,519.23s-44.38-70.76-125.66-109.33l58.6-119.67s67.11,21.6,110.1,101Z"/><polygon points="1756.32 759.23 1653.98 645.4 1692.26 519.23 1782.35 639.23 1756.32 759.23"/><path d="M1874.44,732.67,1783,641.31l31.38-122.08s64.12,93.65,84.44,97.71Z"/><path d="M1959.76,796.66s-56.3-43.43-85.32-64l-22.35,117.75s82.64,56.83,98.22,58.86C1950.31,909.28,1949.57,811.93,1959.76,796.66Z"/><path d="M1981.21,679.54s-70.57-40-82.76-62.31l20.24-85.86s30.93,39.91,89.86,58.18C2008.55,589.55,1994.33,618,1981.21,679.54Z"/><path d="M1780.23,278.75l-43,112.87,77.22,127.91,25.92-93.3s-19.83-28.51-22.88-56.94C1817.52,369.29,1796.79,314.09,1780.23,278.75Z"/><path class="cls-3" d="M1388,369.23l-69.07,138s-61-2.52-137.09-60.76l77.85-133.62S1306.91,355.23,1388,369.23Z"/><path class="cls-3" d="M1625.2,290.23l-58,119s-41-21-179.16-40l67.06-132S1543.13,267.23,1625.2,290.23Z"/><path class="cls-3" d="M1524.11,118.23l-69.06,119s-84-32.08-114.58-63l69.66-119.58S1455.05,92.23,1524.11,118.23Z"/><path d="M1853.09,850.42,1832.2,989.11s-81.32-57.43-105.4-83.85l30.78-146.2S1816.51,826.05,1853.09,850.42Z"/><path class="cls-3" d="M1654.23,645.23s-47-64-142.13-101l55.05-135s67.06,24,125.11,110Z"/><path class="cls-3" d="M1735.3,391.23s-34-68-110.1-101l51-106s44,28,102.09,95Z"/><path class="cls-3" d="M1725.29,901.23l31-142-102.09-114-36,124S1684.26,850.23,1725.29,901.23Z"/><path class="cls-3" d="M1950.5,909.23s-41-18-98.09-59l-21,139s52,32,119.11,46Z"/><path class="cls-3" d="M1959.51,796.23s4-60,22-116c0,0-53-34-83.08-63l-24,115Z"/><path class="cls-3" d="M1852.41,850.23s-50.05-38-96.09-91l26-120,92.08,93S1863.42,789.23,1852.41,850.23Z"/><path class="cls-3" d="M1898.45,617.23l19-86s-45-26-77.07-105l-26,93S1865.42,600.23,1898.45,617.23Z"/><polygon class="cls-3" points="1735.3 391.23 1692.26 519.23 1782.35 639.23 1814.38 519.23 1735.3 391.23"/><path class="cls-3" d="M1512.1,544.23l-49,136s-23-9-96.51,0c0,0-71.64,3-119.68-9l72.06-164S1422,525.23,1512.1,544.23Z"/><path d="M2545.7,395.79l-23.39,26v76.36H2419.92V189.25h102.39v112.1l101.51-112.1h113.42L2613.67,325.18l129.75,173H2622.94Z"/><path d="M2801,486.49q-32-16.11-50.09-44.58t-18.09-64.65q0-36.18,18.09-64.66T2801,268.25q32-15.88,72.16-15.89,40.61,0,72.6,15.89t49.87,44.35q17.88,28.47,17.88,64.66t-17.88,64.65q-17.88,28.47-49.87,44.58t-72.6,16.11Q2833,502.6,2801,486.49ZM2948.21,229h41.92L2795.5,529.08h-41.92Zm-46.78,183.38q11-12.59,11-35.09t-11-34.87q-11-12.34-28.25-12.35t-28.25,12.35q-11,12.36-11,34.87t11,35.09q11,12.57,28.25,12.57T2901.43,412.35Z"/><path d="M3264.42,267.59q26.7,15.23,42.37,43.69t15.67,66q0,37.51-15.67,66.2t-42.37,43.91A116,116,0,0,1,3206,502.6q-44.6,0-66.21-24.27v19.86h-94.88V170.71h99.74V273.1q21.18-20.73,61.35-20.74A116,116,0,0,1,3264.42,267.59Zm-54.06,144.76q11-12.59,11-35.09t-11-34.87q-11-12.34-28.25-12.35t-28.24,12.35q-11,12.36-11,34.87t11,35.09q11,12.57,28.24,12.57T3210.36,412.35Z"/><path d="M3609.33,400.65H3441.62a40.58,40.58,0,0,0,17.65,21q12.36,7.29,30.9,7.29,15.89,0,26.7-4t23.61-13.68l52.07,52.52q-35.31,38.85-105.47,38.84-43.7,0-76.8-16.11t-51.19-44.8Q3341,413,3341,377.26q0-36.18,17.88-64.66t49-44.35q31.11-15.88,69.95-15.89,36.63,0,66.86,14.56a114.91,114.91,0,0,1,48.11,42.81q17.86,28.26,17.87,67.53Q3610.65,379.48,3609.33,400.65Zm-156.24-71.94q-10.15,8.39-13.24,23.83h77.68q-3.09-15-13.24-23.61t-25.6-8.6Q3463.24,320.33,3453.09,328.71Z"/><path d="M3881.41,279.28q27.15,26.93,27.14,81.21v137.7h-99.74V377.7q0-41.47-29.57-41.49-16.77,0-27.14,11.7t-10.37,36.85V498.19H3642V256.77h94.89v23.84a92,92,0,0,1,32.66-21.19,112,112,0,0,1,40.16-7.06Q3854.27,252.36,3881.41,279.28Z"/><path d="M4191.23,279.28q27.14,26.93,27.14,81.21v137.7h-99.74V377.7q0-41.47-29.57-41.49-16.79,0-27.14,11.7t-10.38,36.85V498.19H3951.8V170.71h99.74V276.19q27.81-23.83,68-23.83Q4164.08,252.36,4191.23,279.28Z"/><path d="M4466.84,280.83q33.54,28.46,33.54,87.6V498.19H4407.7V466.41q-17.21,36.19-68.41,36.19-28.68,0-48.76-9.93t-30.46-26.92a71.88,71.88,0,0,1-10.37-38.18q0-35.74,27.37-54.28t83-18.54h40.16q-4.86-28.25-45.46-28.24a114,114,0,0,0-33.1,5.07,93.35,93.35,0,0,0-28.69,13.9l-31.77-65.76q20.73-12.8,50.09-20.08a242.28,242.28,0,0,1,58.48-7.28Q4433.29,252.36,4466.84,280.83Zm-78.56,156q8.39-5.73,12.36-17.21V402.86h-24.71q-30.47,0-30.46,20.3a17.56,17.56,0,0,0,6.4,13.9q6.39,5.52,17.43,5.52A32.77,32.77,0,0,0,4388.28,436.84Z"/><path d="M4808,256.77,4710.9,498.19H4607.63l-97.1-241.42h102.39l48.55,129.32,52.08-129.32Z"/><path d="M5062.86,279.28Q5090,306.21,5090,360.49v137.7h-99.75V377.7q0-41.47-29.57-41.49-16.77,0-27.14,11.7t-10.37,36.85V498.19h-99.74V256.77h94.89v23.84A92,92,0,0,1,4951,259.42a112,112,0,0,1,40.16-7.06Q5035.72,252.36,5062.86,279.28Z"/><path d="M5166.8,496q-30-6.62-48.55-17.21L5145.61,413q16.77,10.15,39.72,15.89a183.75,183.75,0,0,0,44.58,5.73q17.2,0,24.05-2.87t6.84-8.6q0-5.73-8.6-8t-28-4.41q-29.57-3.53-50.31-9.05a78.81,78.81,0,0,1-36.41-21.4q-15.68-15.89-15.67-45.46A67.39,67.39,0,0,1,5135.9,293q14.13-18.52,42.15-29.57t67.31-11a282.32,282.32,0,0,1,53.62,5.08q26.25,5.07,44.79,14.78L5316.41,338q-31.77-17.64-69.73-17.65-32.67,0-32.66,11.47,0,5.74,8.83,8.17t27.8,4.63q29.57,3.54,50.09,9.27a80.74,80.74,0,0,1,36.19,21.62q15.66,15.9,15.67,45.46,0,22.51-14.12,41.05t-42.37,29.57q-28.24,11-68.41,11A282,282,0,0,1,5166.8,496Z"/><path d="M2395.55,825.2H2501.1V977.6q-31.93,22.15-74.14,34a306.34,306.34,0,0,1-82.9,11.84q-57.67,0-103.5-23.94t-71.82-66.94q-26-43-26-97.57t26-97.57q26-43,72.6-66.94t105.29-23.94q53,0,95,17.76T2511.4,716l-77.75,68.48q-34-39.64-80.84-39.65-40.16,0-63.84,24.2T2265.28,835q0,40.68,23.43,65.39t62.56,24.71a114.44,114.44,0,0,0,44.28-8.75Z"/><path d="M2614.12,1001.55q-37.34-18.79-58.44-52t-21.11-75.43q0-42.21,21.11-75.43t58.44-51.75q37.32-18.54,84.18-18.53,47.37,0,84.7,18.53t58.19,51.75Q2862,831.89,2862,874.11t-20.85,75.43q-20.86,33.21-58.19,52t-84.7,18.79Q2651.44,1020.34,2614.12,1001.55ZM2731.26,915q12.85-14.67,12.87-40.93t-12.87-40.68q-12.89-14.4-33-14.41t-33,14.41q-12.87,14.43-12.87,40.68T2665.35,915q12.87,14.69,33,14.68T2731.26,915Z"/><path d="M3033.5,928.69,3015,948.77v66.42H2898.59V633.14H3015V815.41l80.84-81.87h137.47l-116.36,122,125.63,159.62H3102Z"/><path d="M3500,761.61q39.12,33.21,39.13,102.2v151.38H3431V978.12q-20.09,42.23-79.81,42.22-33.48,0-56.9-11.59t-35.53-31.4q-12.11-19.82-12.1-44.54,0-41.71,31.93-63.33t96.8-21.63h46.85q-5.67-32.94-53-33a133,133,0,0,0-38.62,5.92Q3311,826.74,3297.12,837l-37.07-76.72q24.19-14.93,58.44-23.43a282.55,282.55,0,0,1,68.22-8.49Q3460.85,728.4,3500,761.61Zm-91.65,182q9.78-6.69,14.42-20.08V904h-28.84q-35.52,0-35.53,23.69a20.5,20.5,0,0,0,7.47,16.22q7.45,6.43,20.34,6.43A38.24,38.24,0,0,0,3408.34,943.62Z"/><path d="M3791.42,728.4v103a178.48,178.48,0,0,0-25.75-2.06q-59.73,0-59.73,60.76v125.12H3589.58V733.54h110.7v30.38Q3731.18,728.4,3791.42,728.4Z"/><path d="M4039.59,1005.41q-26.25,14.93-71.57,14.93-59.22,0-91.13-28.58T3845,906V834h-38.62V749H3845V670.21h116.37V749H4019v85h-57.67v71q0,12.88,6.69,20.08t17.51,7.21a45.51,45.51,0,0,0,26.26-7.72Z"/><path d="M4564.77,861.24q17.5,22.66,17.51,54.58,0,47.37-39.13,73.37t-113.28,26H4227V654.77h192.57q72.09,0,108.9,25.74T4565.29,749q0,25.23-12.62,45.31t-37.33,32.44Q4547.26,838.59,4564.77,861.24ZM4346.46,739.72v53.55h56.63q39.65,0,39.65-26.77t-39.65-26.78Zm113.27,162.19q0-28.3-40.16-28.31h-73.11v56.63h73.11Q4459.74,930.23,4459.73,901.91Z"/><path d="M4860.83,761.61Q4900,794.82,4900,863.81v151.38H4791.84V978.12q-20.09,42.23-79.81,42.22-33.48,0-56.9-11.59t-35.52-31.4q-12.1-19.82-12.1-44.54,0-41.71,31.92-63.33t96.8-21.63h46.85q-5.67-32.94-53-33a133.09,133.09,0,0,0-38.62,5.92Q4671.85,826.74,4658,837l-37.08-76.72q24.2-14.93,58.44-23.43a282.63,282.63,0,0,1,68.23-8.49Q4821.71,728.4,4860.83,761.61Zm-91.65,182q9.78-6.69,14.42-20.08V904h-28.83q-35.54,0-35.53,23.69a20.5,20.5,0,0,0,7.46,16.22q7.47,6.43,20.34,6.43A38.22,38.22,0,0,0,4769.18,943.62Z"/><path d="M5229.75,759.8q31.66,31.43,31.67,94.74v160.65H5145.05V874.63q0-48.4-34.5-48.4-19.57,0-31.66,13.64t-12.1,43v132.33H4950.42V733.54h110.7v27.81a107.58,107.58,0,0,1,38.1-24.72,130.84,130.84,0,0,1,46.86-8.23Q5198.09,728.4,5229.75,759.8Z"/><path d="M5615.14,901.4H5419.48a47.45,47.45,0,0,0,20.6,24.46q14.41,8.49,36,8.49,18.54,0,31.15-4.63t27.55-16L5595.58,975q-41.2,45.32-123.06,45.31-51,0-89.59-18.79t-59.73-52.26q-21.12-33.46-21.11-75.18,0-42.21,20.85-75.43t57.15-51.75q36.32-18.54,81.62-18.53,42.72,0,78,17a134,134,0,0,1,56.13,49.94q20.85,33,20.85,78.78Q5616.69,876.69,5615.14,901.4Zm-182.27-83.93q-11.85,9.79-15.45,27.81h90.63q-3.61-17.5-15.45-27.55t-29.86-10Q5444.71,807.69,5432.87,817.47Z"/></svg>
