<?xml version="1.0" standalone="no"?>
<!DOCTYPE svg PUBLIC "-//W3C//DTD SVG 20010904//EN"
 "http://www.w3.org/TR/2001/REC-SVG-20010904/DTD/svg10.dtd">
<svg version="1.0" xmlns="http://www.w3.org/2000/svg"
 width="2001.000000pt" height="2001.000000pt" viewBox="0 0 2001.000000 2001.000000"
 preserveAspectRatio="xMidYMid meet">
<metadata>
Created by potrace 1.11, written by Peter Selinger 2001-2013
</metadata>
<g transform="translate(0.000000,2001.000000) scale(0.100000,-0.100000)"
fill="#000000" stroke="none">
<path d="M6282 15970 c-82 -12 -136 -79 -129 -162 3 -36 21 -76 76 -170 l72
-122 -23 -18 c-57 -45 -286 -193 -428 -276 -191 -113 -519 -279 -725 -366 -60
-26 -123 -53 -140 -61 -93 -40 -375 -143 -480 -175 -200 -60 -555 -222 -825
-377 -125 -72 -400 -264 -490 -342 -14 -12 -50 -43 -80 -69 -86 -73 -261 -252
-343 -350 -171 -206 -293 -404 -400 -652 -8 -19 -22 -60 -31 -90 -124 -434
-199 -636 -348 -936 -309 -625 -765 -1136 -1308 -1464 -106 -64 -303 -162
-350 -174 -52 -12 -52 -9 40 -286 49 -146 91 -276 94 -290 2 -14 18 -74 35
-135 17 -60 36 -126 41 -145 27 -96 102 -429 124 -553 13 -71 27 -144 31 -167
3 -14 8 -41 11 -60 6 -42 10 -63 23 -138 6 -31 13 -77 16 -102 3 -25 8 -56 10
-70 2 -14 7 -45 10 -70 2 -25 7 -55 9 -67 3 -12 7 -48 11 -80 3 -32 7 -74 10
-93 2 -19 6 -53 9 -75 3 -22 8 -71 11 -110 4 -38 8 -81 10 -95 2 -14 7 -63 10
-110 3 -47 8 -96 10 -110 2 -14 7 -83 10 -155 4 -71 8 -148 10 -170 25 -311
19 -1177 -9 -1418 -2 -17 2 -31 9 -33 25 -10 329 62 490 115 105 35 245 88
330 126 85 38 357 174 375 189 8 6 31 20 50 30 110 59 442 290 575 400 27 22
61 50 74 61 243 198 623 583 783 791 12 16 25 31 28 34 18 14 134 177 185 260
32 52 61 97 65 100 3 3 18 25 33 49 41 63 211 285 276 361 102 119 345 356
461 450 419 336 873 535 1340 587 116 13 386 6 500 -12 110 -19 637 -26 830
-12 160 12 223 17 250 22 14 3 50 8 80 11 46 5 309 52 375 67 82 20 238 61
275 74 25 8 52 16 60 18 27 6 214 72 290 103 187 75 406 183 530 262 8 5 35
21 60 36 62 38 171 117 256 185 l71 58 39 -67 c21 -37 43 -76 49 -87 6 -11 50
-86 98 -168 48 -81 93 -160 102 -176 14 -28 13 -32 -72 -177 -47 -82 -102
-176 -121 -209 -19 -33 -42 -73 -52 -90 -10 -16 -79 -135 -154 -264 -75 -129
-136 -238 -136 -242 0 -5 -4 -9 -9 -9 -5 0 -13 -10 -17 -22 -5 -18 -47 -92
-94 -168 -5 -8 -27 -46 -49 -85 -22 -38 -47 -81 -55 -95 -19 -31 -102 -173
-128 -219 -11 -19 -117 -202 -235 -405 -119 -204 -225 -387 -235 -406 -11 -19
-24 -39 -28 -45 -4 -5 -19 -30 -32 -55 -14 -25 -123 -214 -243 -420 -120 -206
-226 -388 -235 -405 -10 -16 -66 -113 -125 -215 -59 -102 -115 -198 -125 -215
-9 -16 -38 -65 -64 -108 -25 -43 -46 -80 -46 -82 0 -3 -78 -137 -120 -205 -5
-8 -26 -44 -46 -80 -37 -65 -63 -109 -148 -252 -25 -43 -46 -82 -46 -88 0 -5
-4 -10 -10 -10 -5 0 -10 -4 -10 -9 0 -5 -87 -157 -192 -338 -192 -326 -193
-328 -193 -388 0 -72 20 -105 81 -135 30 -15 52 -19 84 -15 81 10 85 15 234
275 59 102 111 192 116 200 5 8 53 92 108 185 54 94 123 211 152 260 28 50 62
108 75 130 12 22 85 148 162 280 77 132 148 254 157 270 9 17 21 37 26 45 5 8
45 76 88 150 132 228 176 304 189 325 7 11 18 31 25 45 7 14 30 53 51 86 20
34 37 66 37 72 0 6 4 12 8 14 4 2 28 39 53 83 25 44 93 161 151 260 58 99 123
212 145 250 38 67 204 354 223 385 18 30 306 525 331 569 15 25 105 181 201
346 96 165 248 426 337 580 90 154 168 285 174 292 9 9 36 -30 117 -169 58
-100 106 -187 108 -195 2 -7 8 -13 13 -13 5 0 9 -5 9 -10 0 -6 17 -39 38 -73
21 -35 41 -70 45 -77 4 -8 17 -31 28 -50 12 -19 152 -260 311 -535 160 -275
301 -517 314 -537 13 -21 24 -39 24 -42 0 -2 25 -45 55 -95 30 -51 55 -94 55
-97 0 -4 30 -55 88 -149 6 -11 19 -33 27 -48 9 -15 117 -202 242 -415 124
-213 235 -405 248 -427 33 -60 163 -281 206 -354 22 -34 39 -65 39 -67 0 -2
28 -52 63 -111 35 -60 74 -126 87 -148 12 -22 79 -137 148 -255 69 -118 133
-228 142 -245 9 -16 80 -138 157 -270 195 -335 321 -551 353 -610 57 -102 149
-140 229 -94 58 33 76 65 75 134 0 63 -5 72 -225 443 -48 81 -345 593 -364
627 -12 22 -41 71 -64 109 -22 37 -41 69 -41 71 0 3 -204 355 -240 415 -18 30
-180 309 -269 462 -50 86 -98 170 -108 186 -40 68 -117 200 -141 242 -14 25
-42 74 -64 109 -21 34 -38 65 -38 66 0 2 -34 61 -75 130 -41 70 -75 128 -75
130 0 2 -58 102 -90 155 -17 28 -95 163 -348 600 -139 239 -256 442 -261 450
-6 8 -67 114 -138 235 -70 121 -132 227 -138 237 -5 9 -17 29 -26 45 -9 15
-79 136 -156 268 -77 132 -147 254 -156 272 l-17 31 67 114 c85 146 195 334
219 376 17 30 38 41 46 25 14 -32 248 -202 401 -292 104 -61 366 -191 446
-222 183 -71 244 -93 316 -116 44 -14 87 -27 95 -28 8 -2 15 -4 15 -5 0 -1 7
-3 15 -5 8 -2 68 -18 134 -34 141 -37 320 -73 426 -87 25 -3 52 -7 60 -9 8 -2
47 -7 85 -11 39 -3 79 -8 90 -10 51 -10 281 -18 485 -19 249 0 442 10 610 32
137 17 392 7 535 -22 39 -8 81 -16 95 -18 47 -9 155 -39 230 -64 403 -135 776
-371 1109 -702 215 -214 388 -426 561 -693 44 -67 86 -132 93 -142 24 -38 161
-212 212 -271 28 -33 62 -73 76 -89 83 -98 289 -309 421 -431 643 -596 1343
-978 2033 -1110 102 -19 108 -19 101 3 -5 19 -16 179 -22 347 -10 269 -5 795
11 1075 9 172 16 286 20 325 2 22 7 76 10 120 3 44 8 96 10 115 2 19 7 67 10
105 4 39 8 81 10 95 2 14 7 50 10 80 3 30 10 87 15 125 5 39 12 90 15 115 9
66 23 162 30 200 2 8 6 38 9 65 4 28 16 95 26 150 11 55 22 118 26 139 3 21
21 111 41 200 19 89 36 171 39 183 34 172 168 638 258 897 55 157 57 175 23
176 -36 0 -319 147 -449 232 -334 218 -665 534 -883 843 -27 39 -52 72 -55 75
-12 10 -150 231 -150 240 0 4 -3 10 -7 12 -5 2 -21 26 -36 53 -35 62 -197 392
-197 400 0 3 -9 25 -19 48 -50 110 -191 512 -191 544 0 46 -99 303 -163 423
-300 562 -835 1042 -1537 1380 -235 112 -321 148 -560 227 -359 119 -836 326
-1115 483 -280 158 -439 255 -573 353 -29 21 -59 36 -67 33 -7 -2 20 53 61
123 41 71 77 142 80 159 14 67 -21 139 -83 171 -33 17 -104 13 -143 -8 -38
-20 -40 -22 -242 -371 -119 -205 -289 -498 -308 -530 -53 -88 -240 -413 -240
-416 0 -2 -15 -27 -33 -56 -19 -29 -37 -60 -40 -68 -4 -8 -15 -28 -26 -45 -16
-26 -241 -413 -292 -502 -43 -76 -65 -114 -254 -438 -109 -187 -206 -354 -216
-372 -10 -17 -29 -49 -42 -70 -13 -21 -26 -42 -28 -48 -2 -5 -30 -53 -61 -107
-32 -53 -58 -101 -58 -107 0 -6 -4 -11 -10 -11 -5 0 -10 -4 -10 -9 0 -5 -26
-53 -58 -108 -33 -54 -110 -186 -172 -293 -62 -107 -152 -262 -200 -345 -48
-82 -122 -210 -164 -283 -43 -74 -97 -167 -122 -209 -24 -41 -44 -79 -44 -84
0 -5 -4 -9 -10 -9 -5 0 -10 -5 -10 -11 0 -6 -20 -44 -45 -85 -25 -40 -45 -77
-45 -82 0 -4 -5 -13 -12 -20 -7 -7 -26 -37 -43 -67 -16 -30 -62 -110 -101
-177 -40 -68 -81 -139 -92 -158 -22 -41 -108 -188 -121 -210 -11 -16 -192
-328 -230 -394 -12 -23 -43 -74 -67 -114 -24 -40 -44 -74 -44 -76 0 -2 -30
-55 -68 -117 -37 -63 -73 -126 -81 -141 -21 -41 -17 -46 -89 81 -14 25 -38 68
-55 95 -16 28 -37 65 -47 81 -9 17 -74 127 -143 246 -69 120 -135 232 -145
250 -11 19 -49 85 -86 147 -36 62 -77 132 -90 155 -13 23 -72 125 -131 227
-192 329 -247 424 -277 477 -16 29 -34 56 -39 59 -5 3 -7 10 -4 15 4 5 1 9 -4
9 -6 0 -11 4 -11 8 0 5 -75 136 -166 293 -91 156 -176 302 -188 324 -23 41
-39 68 -261 450 -70 121 -166 285 -212 365 -46 80 -88 152 -93 160 -5 8 -28
47 -50 85 -22 39 -54 93 -70 120 -17 28 -44 75 -61 105 -16 30 -45 80 -63 110
-47 80 -356 611 -380 655 -6 11 -19 31 -27 45 -13 20 -430 738 -512 880 -11
19 -28 49 -38 65 -11 17 -22 37 -26 45 -7 15 -105 182 -123 210 -6 8 -13 22
-17 30 -4 8 -27 49 -51 90 -61 103 -83 140 -99 172 -20 39 -65 81 -99 93 -16
6 -48 8 -72 5z m-3586 -2955 c31 -82 89 -235 129 -340 40 -104 107 -278 149
-385 l76 -195 -20 -27 c-11 -15 -20 -31 -20 -36 0 -4 -7 -17 -15 -27 -8 -11
-49 -75 -91 -142 -41 -68 -78 -123 -81 -123 -3 0 3 12 13 28 10 15 58 94 107
175 l89 148 -25 67 c-14 37 -49 128 -77 202 -29 74 -83 216 -120 315 -38 99
-93 246 -124 328 -50 131 -65 179 -52 166 2 -2 30 -71 62 -154z m14651 78
c-13 -37 -73 -194 -132 -348 -162 -423 -245 -644 -245 -654 0 -5 43 -80 96
-167 53 -88 106 -174 116 -191 11 -18 18 -33 15 -33 -3 0 -124 190 -172 271
-5 10 -24 42 -42 71 l-32 54 28 75 c16 41 66 171 110 289 45 118 91 235 101
260 11 25 42 106 70 180 28 74 54 144 59 155 5 11 17 42 26 68 9 27 19 46 22
44 2 -3 -7 -36 -20 -74z m-14542 -1393 c-9 -16 -18 -30 -21 -30 -2 0 2 14 11
30 9 17 18 30 21 30 2 0 -2 -13 -11 -30z m14435 -60 c6 -11 8 -20 6 -20 -3 0
-10 9 -16 20 -6 11 -8 20 -6 20 3 0 10 -9 16 -20z m-14509 -63 c-10 -9 -11 -8
-5 6 3 10 9 15 12 12 3 -3 0 -11 -7 -18z m14653 -173 c3 -8 2 -12 -4 -9 -6 3
-10 10 -10 16 0 14 7 11 14 -7z m-16147 -766 c-3 -8 -6 -5 -6 6 -1 11 2 17 5
13 3 -3 4 -12 1 -19z m17524 -11 c-10 -9 -11 -8 -5 6 3 10 9 15 12 12 3 -3 0
-11 -7 -18z m-17514 -39 c-3 -7 -5 -2 -5 12 0 14 2 19 5 13 2 -7 2 -19 0 -25z
m17508 -10 c-4 -18 -11 -37 -15 -42 -5 -5 -4 10 2 33 12 48 23 56 13 9z
m-17498 -30 c-3 -8 -6 -5 -6 6 -1 11 2 17 5 13 3 -3 4 -12 1 -19z m10 -40 c-3
-8 -6 -5 -6 6 -1 11 2 17 5 13 3 -3 4 -12 1 -19z m17464 -11 c-10 -9 -11 -8
-5 6 3 10 9 15 12 12 3 -3 0 -11 -7 -18z m-17454 -29 c-3 -8 -6 -5 -6 6 -1 11
2 17 5 13 3 -3 4 -12 1 -19z m17430 -90 c-3 -8 -6 -5 -6 6 -1 11 2 17 5 13 3
-3 4 -12 1 -19z m-1216 -529 c-5 -13 -10 -19 -10 -12 -1 15 10 45 15 40 3 -2
0 -15 -5 -28z m-14963 -44 c-3 -3 -9 2 -12 12 -6 14 -5 15 5 6 7 -7 10 -15 7
-18z m14943 -26 c-5 -13 -10 -19 -10 -12 -1 15 10 45 15 40 3 -2 0 -15 -5 -28z
m-14923 -60 c-3 -8 -7 -3 -11 10 -4 17 -3 21 5 13 5 -5 8 -16 6 -23z m14905
-19 c-3 -12 -8 -19 -11 -16 -5 6 5 36 12 36 2 0 2 -9 -1 -20z m-14884 -50 c0
-9 -4 -8 -9 5 -5 11 -9 27 -9 35 0 9 4 8 9 -5 5 -11 9 -27 9 -35z m14865 -14
c-3 -15 -8 -25 -11 -23 -2 3 -1 17 3 31 3 15 8 25 11 23 2 -3 1 -17 -3 -31z
m-14581 -1283 c4 -21 11 -58 16 -83 6 -25 12 -54 15 -65 2 -11 18 -85 36 -165
17 -80 34 -156 36 -170 3 -14 16 -72 29 -130 22 -95 59 -265 69 -315 3 -11 12
-51 20 -90 9 -38 21 -95 27 -125 7 -30 18 -80 25 -110 16 -62 18 -94 6 -86 -7
4 -22 56 -36 131 -7 34 -34 165 -56 265 -11 52 -27 129 -35 170 -8 41 -26 127
-40 191 -14 63 -27 124 -29 135 -25 129 -90 428 -103 478 -3 10 -1 16 5 12 5
-3 12 -22 15 -43z m14304 15 c-3 -8 -6 -5 -6 6 -1 11 2 17 5 13 3 -3 4 -12 1
-19z m-2 -35 c-6 -16 -28 -115 -41 -183 -3 -13 -12 -56 -21 -95 -24 -112 -52
-244 -69 -330 -8 -44 -26 -127 -39 -185 -13 -58 -26 -118 -29 -135 -7 -37 -11
-57 -26 -120 -6 -27 -13 -61 -15 -75 -2 -14 -8 -45 -14 -70 -5 -25 -13 -61
-16 -80 -7 -38 -25 -65 -25 -37 0 10 11 69 25 132 13 62 26 124 29 137 13 68
57 262 60 267 2 3 7 22 10 41 6 39 66 318 97 455 12 50 23 99 25 110 10 56 37
171 41 178 9 14 15 7 8 -10z m-13655 -917 c0 -2 -8 -10 -17 -17 -16 -13 -17
-12 -4 4 13 16 21 21 21 13z"/>
</g>
</svg>
