<svg id="Layer_1" data-name="Layer 1" xmlns="http://www.w3.org/2000/svg" width="2000" height="1300" viewBox="0 0 2000 1300"><defs><style>.cls-1{fill:#8c6239;}.cls-2,.cls-4{fill:none;stroke:#000;stroke-miterlimit:10;}.cls-2{stroke-width:8.12px;}.cls-3{fill:#fff;}.cls-4{stroke-width:8.12px;}</style></defs><title>ikon</title><path class="cls-1" d="M1305.72,1243.7a12.65,12.65,0,0,1-10.92-6.24L999,728.33,703.15,1237.46a12.65,12.65,0,0,1-10.92,6.24A12.44,12.44,0,0,1,686,1242a12.59,12.59,0,0,1-4.56-17.19l303-521.52-365-628.12a12.58,12.58,0,0,1,21.75-12.64L999,678.27,1356.74,62.54a12.64,12.64,0,0,1,10.91-6.24,12.45,12.45,0,0,1,6.28,1.69,12.58,12.58,0,0,1,4.55,17.19l-365,628.12,303,521.52A12.58,12.58,0,0,1,1312,1242a12.44,12.44,0,0,1-6.27,1.69Z"/><path d="M1367.65,59a9.84,9.84,0,0,1,8.46,14.76L1012,700.55l-1.6,2.75,1.6,2.75,302.22,520.15a9.81,9.81,0,0,1-8.45,14.76,9.89,9.89,0,0,1-8.55-4.88L1003.71,731,999,722.87,994.23,731,700.78,1236.08a9.91,9.91,0,0,1-8.55,4.88,9.75,9.75,0,0,1-4.89-1.32,9.84,9.84,0,0,1-3.57-13.44L986,706.05l1.6-2.75-1.6-2.75L621.83,73.8a9.84,9.84,0,0,1,3.57-13.44A9.75,9.75,0,0,1,630.29,59a9.91,9.91,0,0,1,8.55,4.88L994.23,675.57l4.74,8.16,4.74-8.16,355.4-611.65a9.89,9.89,0,0,1,8.54-4.88m0-5.48a15.34,15.34,0,0,0-13.28,7.61L999,672.82,643.58,61.17a15.36,15.36,0,0,0-13.29-7.61,15.16,15.16,0,0,0-7.65,2.06,15.36,15.36,0,0,0-5.55,20.93L981.26,703.3,679,1223.45a15.36,15.36,0,0,0,5.55,20.93,15.16,15.16,0,0,0,7.65,2.06,15.36,15.36,0,0,0,13.29-7.61L999,733.78l293.46,505.05a15.35,15.35,0,0,0,13.29,7.61,15.19,15.19,0,0,0,7.65-2.06,15.36,15.36,0,0,0,5.54-20.93L1016.69,703.3,1380.85,76.55a15.35,15.35,0,0,0-5.55-20.93,15.14,15.14,0,0,0-7.65-2.06Z"/><path class="cls-2" d="M946.56,648.7S839,752.24,629.85,727.88c0,0-148.21-24.36-263.93,166.48,0,0-111.66,160.38-276.1,188.8,0,0,20.3-235.5-56.85-444.61,0,0,148.21-48.72,203-255.8,0,0,28.42-121.81,211.14-188.81,0,0,93.39-26.39,182.72-89.33Z"/><path d="M792.47,721.08,721.21,557.34S794,545.23,857.94,496.47L946.56,648.7S884,710.21,792.47,721.08Z"/><path d="M528,594.23s60.18-3.54,98-18c.66-.26,5.3-1.93,6-2,7.83-.87,57.45-9.41,89.24-16.89l-69-138S543,430.23,473,459.23Z"/><path d="M585.18,287.33l67,132s89.5-13.4,128-56.44L699.45,224.19S647,259.23,585.18,287.33Z"/><path d="M363.63,233.88,415,340.23s164.12-42.75,170.21-52.9L516,168.16S391.78,215,363.63,233.88Z"/><path d="M386,695.23l36,125s78-75.54,155.13-90L528,594.23S431.72,630.05,386,695.23Z"/><path d="M348,569.23s44.35-70.76,125.55-109.33L415,340.23s-67,21.6-110,101Z"/><polygon points="283.97 809.23 386.23 695.4 347.97 569.23 257.97 689.23 283.97 809.23"/><path d="M166,782.67l91.35-91.36L226,569.23s-64.06,93.65-84.37,97.71Z"/><path d="M80.73,846.66s56.24-43.43,85.24-64L188.3,900.42s-82.57,56.83-98.13,58.86C90.17,959.28,90.91,861.93,80.73,846.66Z"/><path d="M59.29,729.54s70.5-40,82.68-62.31l-20.22-85.86S90.85,621.28,32,639.55C32,639.55,46.18,668,59.29,729.54Z"/><path d="M260.09,328.75,303,441.62,225.87,569.53,200,476.23s19.81-28.51,22.86-56.94C222.83,419.29,243.55,364.09,260.09,328.75Z"/><path class="cls-3" d="M652,419.23l69,138s60.94-2.52,137-60.76L780.16,362.85S733,405.23,652,419.23Z"/><path class="cls-3" d="M415,340.23l58,119s41-21,179-40l-67-132S497,317.23,415,340.23Z"/><path class="cls-3" d="M516,168.23l69,119s84-32.08,114.48-63l-69.6-119.58S585,142.23,516,168.23Z"/><path d="M187.3,900.42l20.86,138.69s81.25-57.43,105.31-83.85l-30.75-146.2S223.84,876.05,187.3,900.42Z"/><path class="cls-3" d="M386,695.23s47-64,142-101l-55-135s-67,24-125,110Z"/><path class="cls-3" d="M305,441.23s34-68,110-101l-51-106s-44,28-102,95Z"/><path class="cls-3" d="M315,951.23l-31-142,102-114,36,124S356,900.23,315,951.23Z"/><path class="cls-3" d="M90,959.23s41-18,98-59l21,139s-52,32-119,46Z"/><path class="cls-3" d="M81,846.23s-4-60-22-116c0,0,53-34,83-63l24,115Z"/><path class="cls-3" d="M188,900.23s50-38,96-91l-26-120-92,93S177,839.23,188,900.23Z"/><path class="cls-3" d="M142,667.23l-19-86s45-26,77-105l26,93S175,650.23,142,667.23Z"/><polygon class="cls-3" points="304.97 441.23 347.97 569.23 257.97 689.23 225.97 569.23 304.97 441.23"/><path class="cls-3" d="M528,594.23l49,136s23-9,96.43,0c0,0,71.57,3,119.57-9l-72-164S618,575.23,528,594.23Z"/><path class="cls-4" d="M1052.61,648.7s107.7,103.54,317,79.18c0,0,148.34-24.36,264.16,166.48,0,0,111.76,160.38,276.36,188.8,0,0-20.32-235.5,56.9-444.61,0,0-148.34-48.72-203.21-255.8,0,0-28.45-121.81-211.33-188.81,0,0-93.47-26.39-182.88-89.33Z"/><path d="M1206.84,721.08l71.32-163.74s-72.83-12.11-136.86-60.87L1052.61,648.7S1115.19,710.21,1206.84,721.08Z"/><path d="M1471.57,594.23s-60.23-3.54-98.09-18c-.65-.26-5.3-1.93-6-2-7.83-.87-57.5-9.41-89.32-16.89l69.09-138s109.31,10.94,179.37,39.94Z"/><path d="M1414.31,287.33l-67.06,132s-89.57-13.4-128.1-56.44l80.79-138.66S1352.46,259.23,1414.31,287.33Z"/><path d="M1636.07,233.88l-51.39,106.35s-164.27-42.75-170.37-52.9l69.27-119.17S1607.89,215,1636.07,233.88Z"/><path d="M1613.7,695.23l-36,125s-78.1-75.54-155.27-90l49.17-136S1567.91,630.05,1613.7,695.23Z"/><path d="M1651.74,569.23s-44.39-70.76-125.67-109.33l58.61-119.67s67.1,21.6,110.1,101Z"/><polygon points="1715.8 809.23 1613.45 695.4 1651.74 569.23 1741.82 689.23 1715.8 809.23"/><path d="M1833.91,782.67l-91.44-91.36,31.38-122.08s64.13,93.65,84.45,97.71Z"/><path d="M1919.23,846.66s-56.3-43.43-85.32-64l-22.35,117.75s82.65,56.83,98.22,58.86C1909.78,959.28,1909,861.93,1919.23,846.66Z"/><path d="M1940.68,729.54s-70.56-40-82.75-62.31l20.24-85.86s30.93,39.91,89.86,58.18C1968,639.55,1953.8,668,1940.68,729.54Z"/><path d="M1739.71,328.75l-43,112.87L1774,569.53l25.92-93.3s-19.82-28.51-22.88-56.94C1777,419.29,1756.26,364.09,1739.71,328.75Z"/><path class="cls-3" d="M1347.46,419.23l-69.06,138s-61-2.52-137.1-60.76l77.85-133.62S1266.39,405.23,1347.46,419.23Z"/><path class="cls-3" d="M1584.68,340.23l-58.06,119s-41-21-179.16-40l67.06-132S1502.6,317.23,1584.68,340.23Z"/><path class="cls-3" d="M1483.58,168.23l-69.06,119s-84-32.08-114.58-63l69.67-119.58S1414.52,142.23,1483.58,168.23Z"/><path d="M1812.56,900.42l-20.88,138.69s-81.33-57.43-105.41-83.85l30.78-146.2S1776,876.05,1812.56,900.42Z"/><path class="cls-3" d="M1613.7,695.23s-47-64-142.13-101l55-135s67.06,24,125.12,110Z"/><path class="cls-3" d="M1694.78,441.23s-34-68-110.1-101l51-106s44,28,102.1,95Z"/><path class="cls-3" d="M1684.77,951.23l31-142-102.1-114-36,124S1643.73,900.23,1684.77,951.23Z"/><path class="cls-3" d="M1910,959.23s-41-18-98.09-59l-21,139s52.05,32,119.11,46Z"/><path class="cls-3" d="M1919,846.23s4-60,22-116c0,0-53-34-83.07-63l-24,115Z"/><path class="cls-3" d="M1811.88,900.23s-50-38-96.08-91l26-120,92.08,93S1822.89,839.23,1811.88,900.23Z"/><path class="cls-3" d="M1857.93,667.23l19-86s-45-26-77.07-105l-26,93S1824.9,650.23,1857.93,667.23Z"/><polygon class="cls-3" points="1694.78 441.23 1651.74 569.23 1741.82 689.23 1773.85 569.23 1694.78 441.23"/><path class="cls-3" d="M1471.57,594.23l-49,136s-23-9-96.52,0c0,0-71.64,3-119.68-9l72.07-164S1381.49,575.23,1471.57,594.23Z"/></svg>
